<mxfile host="app.diagrams.net" agent="Mozilla/5.0 (Macintosh; Intel Mac OS X 10_15_7) AppleWebKit/537.36 (KHTML, like Gecko) Chrome/139.0.0.0 Safari/537.36" version="28.1.2">
  <diagram name="第 1 页" id="Zb9FzydkXwpxA7EWOiuT">
    <mxGraphModel dx="1018" dy="599" grid="1" gridSize="10" guides="1" tooltips="1" connect="1" arrows="1" fold="1" page="1" pageScale="1" pageWidth="827" pageHeight="1169" math="0" shadow="0">
      <root>
        <mxCell id="0" />
        <mxCell id="1" parent="0" />
        <mxCell id="NejKsZwoo6GAVcnNSAG7-1" value="智能门户编辑态" style="swimlane;childLayout=stackLayout;resizeParent=1;resizeParentMax=0;startSize=20;html=1;" parent="1" vertex="1">
          <mxGeometry x="470.00000000000045" y="120" width="1250" height="940" as="geometry">
            <mxRectangle x="170.00000000000045" y="40" width="120" height="30" as="alternateBounds" />
          </mxGeometry>
        </mxCell>
        <mxCell id="NejKsZwoo6GAVcnNSAG7-2" value="前端页面" style="swimlane;startSize=20;html=1;" parent="NejKsZwoo6GAVcnNSAG7-1" vertex="1">
          <mxGeometry y="20" width="360" height="920" as="geometry" />
        </mxCell>
        <mxCell id="NejKsZwoo6GAVcnNSAG7-3" value="获取JSON-schema" style="rounded=0;whiteSpace=wrap;html=1;" parent="NejKsZwoo6GAVcnNSAG7-2" vertex="1">
          <mxGeometry x="208.99999999999955" y="50" width="120" height="60" as="geometry" />
        </mxCell>
        <mxCell id="NejKsZwoo6GAVcnNSAG7-4" style="edgeStyle=orthogonalEdgeStyle;rounded=0;orthogonalLoop=1;jettySize=auto;html=1;entryX=0;entryY=0.5;entryDx=0;entryDy=0;" parent="NejKsZwoo6GAVcnNSAG7-2" source="NejKsZwoo6GAVcnNSAG7-5" target="NejKsZwoo6GAVcnNSAG7-14" edge="1">
          <mxGeometry relative="1" as="geometry" />
        </mxCell>
        <mxCell id="NejKsZwoo6GAVcnNSAG7-5" value="schema解析" style="rounded=0;whiteSpace=wrap;html=1;" parent="NejKsZwoo6GAVcnNSAG7-2" vertex="1">
          <mxGeometry x="29.999999999999545" y="285" width="120" height="60" as="geometry" />
        </mxCell>
        <mxCell id="NejKsZwoo6GAVcnNSAG7-6" style="edgeStyle=orthogonalEdgeStyle;rounded=0;orthogonalLoop=1;jettySize=auto;html=1;entryX=0;entryY=0.5;entryDx=0;entryDy=0;" parent="NejKsZwoo6GAVcnNSAG7-2" source="NejKsZwoo6GAVcnNSAG7-8" target="NejKsZwoo6GAVcnNSAG7-10" edge="1">
          <mxGeometry relative="1" as="geometry" />
        </mxCell>
        <mxCell id="NejKsZwoo6GAVcnNSAG7-7" value="是" style="edgeLabel;html=1;align=center;verticalAlign=middle;resizable=0;points=[];" parent="NejKsZwoo6GAVcnNSAG7-6" vertex="1" connectable="0">
          <mxGeometry x="-0.4463" y="-1" relative="1" as="geometry">
            <mxPoint as="offset" />
          </mxGeometry>
        </mxCell>
        <mxCell id="NejKsZwoo6GAVcnNSAG7-8" value="是否有数据源" style="rhombus;whiteSpace=wrap;html=1;" parent="NejKsZwoo6GAVcnNSAG7-2" vertex="1">
          <mxGeometry x="30" y="385" width="120" height="80" as="geometry" />
        </mxCell>
        <mxCell id="NejKsZwoo6GAVcnNSAG7-9" value="直接渲染栏目" style="rounded=0;whiteSpace=wrap;html=1;" parent="NejKsZwoo6GAVcnNSAG7-2" vertex="1">
          <mxGeometry x="30" y="515" width="130" height="60" as="geometry" />
        </mxCell>
        <mxCell id="NejKsZwoo6GAVcnNSAG7-10" value="栏目API调用" style="rounded=0;whiteSpace=wrap;html=1;" parent="NejKsZwoo6GAVcnNSAG7-2" vertex="1">
          <mxGeometry x="209" y="395" width="110" height="60" as="geometry" />
        </mxCell>
        <mxCell id="NejKsZwoo6GAVcnNSAG7-11" style="edgeStyle=orthogonalEdgeStyle;rounded=0;orthogonalLoop=1;jettySize=auto;html=1;entryX=0.433;entryY=-0.011;entryDx=0;entryDy=0;entryPerimeter=0;" parent="NejKsZwoo6GAVcnNSAG7-2" source="NejKsZwoo6GAVcnNSAG7-8" target="NejKsZwoo6GAVcnNSAG7-9" edge="1">
          <mxGeometry relative="1" as="geometry" />
        </mxCell>
        <mxCell id="NejKsZwoo6GAVcnNSAG7-12" value="否" style="edgeLabel;html=1;align=center;verticalAlign=middle;resizable=0;points=[];" parent="NejKsZwoo6GAVcnNSAG7-11" vertex="1" connectable="0">
          <mxGeometry x="-0.2207" y="-4" relative="1" as="geometry">
            <mxPoint as="offset" />
          </mxGeometry>
        </mxCell>
        <mxCell id="NejKsZwoo6GAVcnNSAG7-13" style="edgeStyle=orthogonalEdgeStyle;rounded=0;orthogonalLoop=1;jettySize=auto;html=1;" parent="NejKsZwoo6GAVcnNSAG7-2" source="NejKsZwoo6GAVcnNSAG7-14" target="NejKsZwoo6GAVcnNSAG7-8" edge="1">
          <mxGeometry relative="1" as="geometry">
            <Array as="points">
              <mxPoint x="250" y="365" />
              <mxPoint x="90" y="365" />
            </Array>
          </mxGeometry>
        </mxCell>
        <mxCell id="NejKsZwoo6GAVcnNSAG7-14" value="渲染布局与主题，分析栏目数据源" style="rounded=0;whiteSpace=wrap;html=1;" parent="NejKsZwoo6GAVcnNSAG7-2" vertex="1">
          <mxGeometry x="189.99999999999955" y="285" width="120" height="60" as="geometry" />
        </mxCell>
        <mxCell id="NejKsZwoo6GAVcnNSAG7-52" style="edgeStyle=orthogonalEdgeStyle;rounded=0;orthogonalLoop=1;jettySize=auto;html=1;exitX=1;exitY=0.5;exitDx=0;exitDy=0;entryX=0;entryY=0.5;entryDx=0;entryDy=0;" parent="NejKsZwoo6GAVcnNSAG7-2" source="NejKsZwoo6GAVcnNSAG7-50" target="NejKsZwoo6GAVcnNSAG7-3" edge="1">
          <mxGeometry relative="1" as="geometry" />
        </mxCell>
        <mxCell id="NejKsZwoo6GAVcnNSAG7-50" value="新建或编辑对应门户" style="rounded=0;whiteSpace=wrap;html=1;" parent="NejKsZwoo6GAVcnNSAG7-2" vertex="1">
          <mxGeometry x="39.999999999999545" y="50" width="120" height="60" as="geometry" />
        </mxCell>
        <mxCell id="NejKsZwoo6GAVcnNSAG7-15" value="门户服务" style="swimlane;startSize=20;html=1;" parent="NejKsZwoo6GAVcnNSAG7-1" vertex="1">
          <mxGeometry x="360" y="20" width="370" height="920" as="geometry" />
        </mxCell>
        <mxCell id="NejKsZwoo6GAVcnNSAG7-16" style="edgeStyle=orthogonalEdgeStyle;rounded=0;orthogonalLoop=1;jettySize=auto;html=1;entryX=0;entryY=0.5;entryDx=0;entryDy=0;" parent="NejKsZwoo6GAVcnNSAG7-15" source="NejKsZwoo6GAVcnNSAG7-17" target="NejKsZwoo6GAVcnNSAG7-19" edge="1">
          <mxGeometry relative="1" as="geometry" />
        </mxCell>
        <mxCell id="NejKsZwoo6GAVcnNSAG7-17" value="根据门户id获取门户配置" style="rounded=0;whiteSpace=wrap;html=1;" parent="NejKsZwoo6GAVcnNSAG7-15" vertex="1">
          <mxGeometry x="39.999999999999545" y="50" width="120" height="60" as="geometry" />
        </mxCell>
        <mxCell id="v_2-psq1DhCeITfniMz8-4" style="edgeStyle=orthogonalEdgeStyle;rounded=0;orthogonalLoop=1;jettySize=auto;html=1;exitX=0.5;exitY=1;exitDx=0;exitDy=0;entryX=0.5;entryY=0;entryDx=0;entryDy=0;" edge="1" parent="NejKsZwoo6GAVcnNSAG7-15" source="NejKsZwoo6GAVcnNSAG7-19" target="v_2-psq1DhCeITfniMz8-2">
          <mxGeometry relative="1" as="geometry" />
        </mxCell>
        <mxCell id="NejKsZwoo6GAVcnNSAG7-19" value="获取门户数据" style="rounded=0;whiteSpace=wrap;html=1;" parent="NejKsZwoo6GAVcnNSAG7-15" vertex="1">
          <mxGeometry x="196.99999999999955" y="50" width="120" height="60" as="geometry" />
        </mxCell>
        <mxCell id="v_2-psq1DhCeITfniMz8-1" style="edgeStyle=orthogonalEdgeStyle;rounded=0;orthogonalLoop=1;jettySize=auto;html=1;exitX=0.5;exitY=1;exitDx=0;exitDy=0;entryX=0.5;entryY=0;entryDx=0;entryDy=0;" edge="1" parent="NejKsZwoo6GAVcnNSAG7-15" source="NejKsZwoo6GAVcnNSAG7-53" target="NejKsZwoo6GAVcnNSAG7-54">
          <mxGeometry relative="1" as="geometry" />
        </mxCell>
        <mxCell id="NejKsZwoo6GAVcnNSAG7-53" value="获取视图下栏目布局" style="rounded=0;whiteSpace=wrap;html=1;" parent="NejKsZwoo6GAVcnNSAG7-15" vertex="1">
          <mxGeometry x="199.99999999999955" y="340" width="120" height="60" as="geometry" />
        </mxCell>
        <mxCell id="NejKsZwoo6GAVcnNSAG7-54" value="获取布局下的栏目配置" style="rounded=0;whiteSpace=wrap;html=1;" parent="NejKsZwoo6GAVcnNSAG7-15" vertex="1">
          <mxGeometry x="199.99999999999955" y="445" width="120" height="60" as="geometry" />
        </mxCell>
        <mxCell id="v_2-psq1DhCeITfniMz8-6" style="edgeStyle=orthogonalEdgeStyle;rounded=0;orthogonalLoop=1;jettySize=auto;html=1;exitX=0.5;exitY=1;exitDx=0;exitDy=0;entryX=0.5;entryY=0;entryDx=0;entryDy=0;" edge="1" parent="NejKsZwoo6GAVcnNSAG7-15" source="NejKsZwoo6GAVcnNSAG7-55" target="NejKsZwoo6GAVcnNSAG7-53">
          <mxGeometry relative="1" as="geometry" />
        </mxCell>
        <mxCell id="NejKsZwoo6GAVcnNSAG7-55" value="获取门户下的视图" style="rounded=0;whiteSpace=wrap;html=1;" parent="NejKsZwoo6GAVcnNSAG7-15" vertex="1">
          <mxGeometry x="200" y="240" width="117" height="65" as="geometry" />
        </mxCell>
        <mxCell id="v_2-psq1DhCeITfniMz8-5" style="edgeStyle=orthogonalEdgeStyle;rounded=0;orthogonalLoop=1;jettySize=auto;html=1;exitX=0.5;exitY=1;exitDx=0;exitDy=0;" edge="1" parent="NejKsZwoo6GAVcnNSAG7-15" source="v_2-psq1DhCeITfniMz8-2" target="NejKsZwoo6GAVcnNSAG7-55">
          <mxGeometry relative="1" as="geometry" />
        </mxCell>
        <mxCell id="v_2-psq1DhCeITfniMz8-2" value="组装schame" style="rounded=0;whiteSpace=wrap;html=1;" vertex="1" parent="NejKsZwoo6GAVcnNSAG7-15">
          <mxGeometry x="198.49999999999955" y="140" width="120" height="60" as="geometry" />
        </mxCell>
        <mxCell id="NejKsZwoo6GAVcnNSAG7-26" value="业务数据" style="swimlane;startSize=20;html=1;" parent="NejKsZwoo6GAVcnNSAG7-1" vertex="1">
          <mxGeometry x="730" y="20" width="520" height="920" as="geometry" />
        </mxCell>
        <mxCell id="NejKsZwoo6GAVcnNSAG7-27" value="V5" style="swimlane;fontStyle=1;align=center;verticalAlign=top;childLayout=stackLayout;horizontal=1;startSize=30;horizontalStack=0;resizeParent=1;resizeParentMax=0;resizeLast=0;collapsible=0;marginBottom=0;html=1;whiteSpace=wrap;" parent="NejKsZwoo6GAVcnNSAG7-26" vertex="1">
          <mxGeometry x="70" y="40" width="140" height="181.8" as="geometry" />
        </mxCell>
        <mxCell id="NejKsZwoo6GAVcnNSAG7-28" value="" style="swimlane;fontStyle=1;align=center;verticalAlign=top;horizontal=1;startSize=0;collapsible=0;marginBottom=0;html=1;strokeColor=none;fillColor=none;" parent="NejKsZwoo6GAVcnNSAG7-27" vertex="1">
          <mxGeometry y="30" width="140" height="151.8" as="geometry" />
        </mxCell>
        <mxCell id="NejKsZwoo6GAVcnNSAG7-29" value="CAP" style="html=1;align=center;verticalAlign=middle;rotatable=0;whiteSpace=wrap;" parent="NejKsZwoo6GAVcnNSAG7-28" vertex="1">
          <mxGeometry width="100" height="30" relative="1" as="geometry">
            <mxPoint x="20" y="8" as="offset" />
          </mxGeometry>
        </mxCell>
        <mxCell id="NejKsZwoo6GAVcnNSAG7-30" value="协同" style="html=1;align=center;verticalAlign=middle;rotatable=0;whiteSpace=wrap;" parent="NejKsZwoo6GAVcnNSAG7-28" vertex="1">
          <mxGeometry x="20" y="50" width="100" height="31.8" as="geometry" />
        </mxCell>
        <mxCell id="NejKsZwoo6GAVcnNSAG7-31" value="……" style="html=1;align=center;verticalAlign=middle;rotatable=0;whiteSpace=wrap;" parent="NejKsZwoo6GAVcnNSAG7-28" vertex="1">
          <mxGeometry x="19.999999999999545" y="100" width="100" height="31.8" as="geometry" />
        </mxCell>
        <mxCell id="NejKsZwoo6GAVcnNSAG7-32" value="V8" style="swimlane;fontStyle=1;align=center;verticalAlign=top;childLayout=stackLayout;horizontal=1;startSize=30;horizontalStack=0;resizeParent=1;resizeParentMax=0;resizeLast=0;collapsible=0;marginBottom=0;html=1;whiteSpace=wrap;" parent="NejKsZwoo6GAVcnNSAG7-26" vertex="1">
          <mxGeometry x="69.99999999999955" y="270" width="140" height="170" as="geometry" />
        </mxCell>
        <mxCell id="NejKsZwoo6GAVcnNSAG7-33" value="&#xa;&lt;span style=&quot;color: rgb(0, 0, 0); font-family: Helvetica; font-size: 12px; font-style: normal; font-variant-ligatures: normal; font-variant-caps: normal; font-weight: 400; letter-spacing: normal; orphans: 2; text-align: center; text-indent: 0px; text-transform: none; widows: 2; word-spacing: 0px; -webkit-text-stroke-width: 0px; white-space: normal; background-color: rgb(236, 236, 236); text-decoration-thickness: initial; text-decoration-style: initial; text-decoration-color: initial; display: inline !important; float: none;&quot;&gt;……&lt;/span&gt;&#xa;&#xa;" style="swimlane;fontStyle=1;align=center;verticalAlign=top;horizontal=1;startSize=0;collapsible=0;marginBottom=0;html=1;strokeColor=none;fillColor=none;" parent="NejKsZwoo6GAVcnNSAG7-32" vertex="1">
          <mxGeometry y="30" width="140" height="140" as="geometry" />
        </mxCell>
        <mxCell id="NejKsZwoo6GAVcnNSAG7-34" value="协同" style="html=1;align=center;verticalAlign=middle;rotatable=0;whiteSpace=wrap;" parent="NejKsZwoo6GAVcnNSAG7-33" vertex="1">
          <mxGeometry width="100" height="30" relative="1" as="geometry">
            <mxPoint x="20" y="20" as="offset" />
          </mxGeometry>
        </mxCell>
        <mxCell id="NejKsZwoo6GAVcnNSAG7-35" value="……" style="html=1;align=center;verticalAlign=middle;rotatable=0;whiteSpace=wrap;" parent="NejKsZwoo6GAVcnNSAG7-33" vertex="1">
          <mxGeometry x="20" y="70" width="100" height="30" as="geometry" />
        </mxCell>
        <mxCell id="NejKsZwoo6GAVcnNSAG7-36" value="CoMi Manager" style="swimlane;fontStyle=1;align=center;verticalAlign=top;childLayout=stackLayout;horizontal=1;startSize=30;horizontalStack=0;resizeParent=1;resizeParentMax=0;resizeLast=0;collapsible=0;marginBottom=0;html=1;whiteSpace=wrap;" parent="NejKsZwoo6GAVcnNSAG7-26" vertex="1">
          <mxGeometry x="69.99999999999955" y="490" width="140" height="200" as="geometry" />
        </mxCell>
        <mxCell id="NejKsZwoo6GAVcnNSAG7-37" value="internal structure" style="html=1;strokeColor=none;fillColor=none;align=center;verticalAlign=middle;spacingLeft=4;spacingRight=4;rotatable=0;points=[[0,0.5],[1,0.5]];resizeWidth=1;whiteSpace=wrap;" parent="NejKsZwoo6GAVcnNSAG7-36" vertex="1">
          <mxGeometry y="30" width="140" height="30" as="geometry" />
        </mxCell>
        <mxCell id="NejKsZwoo6GAVcnNSAG7-38" value="" style="swimlane;fontStyle=1;align=center;verticalAlign=top;horizontal=1;startSize=0;collapsible=0;marginBottom=0;html=1;strokeColor=none;fillColor=none;" parent="NejKsZwoo6GAVcnNSAG7-36" vertex="1">
          <mxGeometry y="60" width="140" height="140" as="geometry" />
        </mxCell>
        <mxCell id="NejKsZwoo6GAVcnNSAG7-39" value="agent服务" style="html=1;align=center;verticalAlign=middle;rotatable=0;whiteSpace=wrap;" parent="NejKsZwoo6GAVcnNSAG7-38" vertex="1">
          <mxGeometry width="100" height="30" relative="1" as="geometry">
            <mxPoint x="20" y="20" as="offset" />
          </mxGeometry>
        </mxCell>
        <mxCell id="NejKsZwoo6GAVcnNSAG7-40" value="提示词服务" style="html=1;align=center;verticalAlign=middle;rotatable=0;whiteSpace=wrap;" parent="NejKsZwoo6GAVcnNSAG7-38" vertex="1">
          <mxGeometry x="20" y="60" width="100" height="30" as="geometry" />
        </mxCell>
        <mxCell id="NejKsZwoo6GAVcnNSAG7-41" value="……" style="html=1;align=center;verticalAlign=middle;rotatable=0;whiteSpace=wrap;" parent="NejKsZwoo6GAVcnNSAG7-38" vertex="1">
          <mxGeometry x="20" y="100" width="100" height="30" as="geometry" />
        </mxCell>
        <mxCell id="NejKsZwoo6GAVcnNSAG7-42" style="edgeStyle=orthogonalEdgeStyle;rounded=0;orthogonalLoop=1;jettySize=auto;html=1;entryX=0;entryY=0.5;entryDx=0;entryDy=0;" parent="NejKsZwoo6GAVcnNSAG7-1" source="NejKsZwoo6GAVcnNSAG7-3" target="NejKsZwoo6GAVcnNSAG7-17" edge="1">
          <mxGeometry relative="1" as="geometry" />
        </mxCell>
        <mxCell id="NejKsZwoo6GAVcnNSAG7-43" style="edgeStyle=orthogonalEdgeStyle;rounded=0;orthogonalLoop=1;jettySize=auto;html=1;" parent="NejKsZwoo6GAVcnNSAG7-1" source="NejKsZwoo6GAVcnNSAG7-17" target="NejKsZwoo6GAVcnNSAG7-5" edge="1">
          <mxGeometry relative="1" as="geometry">
            <Array as="points">
              <mxPoint x="460" y="200" />
              <mxPoint x="90" y="200" />
            </Array>
          </mxGeometry>
        </mxCell>
        <mxCell id="NejKsZwoo6GAVcnNSAG7-51" style="edgeStyle=orthogonalEdgeStyle;rounded=0;orthogonalLoop=1;jettySize=auto;html=1;entryX=0;entryY=0.5;entryDx=0;entryDy=0;" parent="1" source="NejKsZwoo6GAVcnNSAG7-49" target="NejKsZwoo6GAVcnNSAG7-50" edge="1">
          <mxGeometry relative="1" as="geometry" />
        </mxCell>
        <mxCell id="NejKsZwoo6GAVcnNSAG7-49" value="" style="image;points=[];aspect=fixed;html=1;align=center;shadow=0;dashed=0;image=img/lib/allied_telesis/computer_and_terminals/Personal_Computer.svg;" parent="1" vertex="1">
          <mxGeometry x="330" y="310" width="45.6" height="61.800000000000004" as="geometry" />
        </mxCell>
      </root>
    </mxGraphModel>
  </diagram>
</mxfile>
